<svg width="20" height="12" viewBox="0 0 20 12" fill="none" xmlns="http://www.w3.org/2000/svg">
<path d="M19.0239 5.52326C18.915 5.26481 18.8009 5.00842 18.6982 4.74689C18.1751 3.42697 17.6552 2.10705 17.1342 0.786097C16.9585 0.339969 16.6893 0.219976 16.2464 0.3933C15.7994 0.567649 15.3535 0.745074 14.9065 0.919423C14.629 1.02711 14.4831 1.21992 14.4831 1.52452C14.4831 1.56862 14.4389 1.6322 14.3978 1.65271C14.0464 1.82501 13.6836 1.91116 13.2808 1.91834C12.5071 1.93167 11.7251 1.91834 10.9729 2.1614C10.9287 2.17576 10.8568 2.15012 10.8147 2.12038C10.7458 2.07115 10.6883 2.00346 10.6287 1.94193C10.2526 1.55221 9.79635 1.41478 9.2651 1.504C8.9671 1.55426 8.6691 1.59938 8.37111 1.64759C8.17073 1.67938 8.05874 1.79732 8.07518 1.95834C8.09265 2.12858 8.23342 2.22601 8.44407 2.1973C8.77906 2.15012 9.11405 2.09474 9.44801 2.04243C9.72956 1.99833 9.97412 2.07936 10.1745 2.27729C10.977 3.07212 11.8237 3.81361 12.7671 4.43922C12.9315 4.54896 12.9315 4.65151 12.7804 4.77664C12.4598 5.04123 12.0971 5.0638 11.7159 4.94996C11.2206 4.80125 10.8167 4.4987 10.4324 4.16744C10.0717 3.85669 9.76141 3.86284 9.42642 4.19103C8.64855 4.95406 7.72375 5.29763 6.6335 5.14892C6.4732 5.12738 6.35091 5.16636 6.2235 5.26071C5.49289 5.80529 4.75715 6.3427 4.01114 6.89241C3.6186 6.64114 3.22608 6.38987 2.82121 6.12938C3.34733 4.79817 3.87036 3.47517 4.39853 2.13679C4.57938 2.20243 4.75099 2.25063 4.91232 2.32344C5.46618 2.57369 6.03647 2.62291 6.62732 2.48959C6.77118 2.45677 6.91916 2.44344 7.06507 2.4178C7.25312 2.38395 7.35073 2.26806 7.33224 2.10397C7.31477 1.94295 7.18838 1.84757 6.99828 1.87014C6.79687 1.89372 6.59444 1.92244 6.39612 1.96449C6.01078 2.04551 5.63778 2.01885 5.27299 1.86706C5.08598 1.78912 4.89073 1.72963 4.70372 1.64964C4.66364 1.6322 4.62048 1.56656 4.62048 1.52349C4.61945 1.23017 4.48587 1.03736 4.21151 0.930704C3.73574 0.746099 3.26306 0.552265 2.78627 0.36766C2.44203 0.234334 2.14095 0.363558 2.00326 0.704051C1.76692 1.29068 1.53572 1.88039 1.30452 2.46908C1.22848 2.66394 1.28602 2.82085 1.4494 2.88136C1.60251 2.93879 1.74227 2.8629 1.81933 2.67112C2.03101 2.14089 2.2396 1.60861 2.45025 1.07736C2.47697 1.00967 2.5078 0.943011 2.54068 0.865067C3.05138 1.06711 3.55284 1.26504 4.06663 1.46708C3.42954 3.07827 2.80066 4.671 2.16151 6.28629C1.64773 6.08528 1.1473 5.88837 0.63043 5.6853C0.826694 5.18892 1.01782 4.70484 1.20895 4.21974C1.24697 4.12231 1.29115 4.02694 1.32301 3.92745C1.37233 3.77464 1.30657 3.62593 1.17402 3.5726C1.02913 3.51312 0.873962 3.57055 0.809225 3.73054C0.569801 4.32333 0.332439 4.91611 0.108429 5.51403C0.0138931 5.76632 0.132065 6.06476 0.379709 6.1704C0.911989 6.39705 1.45146 6.60422 1.99299 6.80831C2.16973 6.87497 2.34236 6.82677 2.50163 6.72011C2.54581 6.69037 2.63316 6.67191 2.67221 6.6955C3.00309 6.89754 3.32677 7.10983 3.64943 7.31597C3.44392 8.37027 3.92585 8.94562 4.94006 8.87076C5.15277 9.63687 5.44151 9.86044 6.26973 9.88711C6.30467 10.2471 6.4475 10.5568 6.76091 10.765C7.06713 10.9681 7.40109 11.0019 7.76382 10.8932C7.87069 11.405 8.15532 11.7403 8.67219 11.8511C9.19831 11.9639 9.56103 11.6521 9.95151 11.3516C10.0255 11.4368 10.0974 11.5178 10.1673 11.5988C10.4448 11.9208 10.79 12.0583 11.2082 11.9537C11.6244 11.8501 11.87 11.5742 11.9625 11.1558C11.9727 11.1117 12.0282 11.045 12.0663 11.0429C12.6715 11.0152 12.9931 10.6778 13.1072 10.1117C13.8213 10.0194 14.1019 9.7784 14.22 9.16202C15.1942 9.001 15.559 8.4277 15.1911 7.60006C15.2538 7.55391 15.3185 7.50058 15.3884 7.45648C15.747 7.2288 16.1046 6.99907 16.4684 6.78062C16.5218 6.74883 16.6071 6.76626 16.677 6.76831C16.8383 6.77447 17.015 6.83293 17.1568 6.78472C17.6624 6.6114 18.1556 6.40013 18.655 6.20732C18.8431 6.1345 18.9356 5.98067 19.0219 5.81657C19.0239 5.72017 19.0239 5.62171 19.0239 5.52326ZM14.7071 2.14704C15.2435 3.50286 15.7789 4.85868 16.3153 6.21655C15.8076 6.53756 15.3206 6.84728 14.8232 7.16111C14.6711 6.98676 14.5283 6.80934 14.3721 6.64422C13.8398 6.08323 12.8986 6.3027 12.6736 7.03804C12.6509 7.11291 12.6355 7.19085 12.6181 7.26367C11.9368 7.31803 11.6819 7.5334 11.4918 8.21131C10.8599 8.22259 10.49 8.54667 10.378 9.16817C9.90322 9.15484 9.55077 9.34355 9.35964 9.77224C9.16851 10.2009 9.28565 10.5866 9.60215 10.9455C9.40485 11.0665 9.23222 11.2029 9.03698 11.285C8.78626 11.3906 8.50162 11.2563 8.38242 11.0173C8.2622 10.7763 8.32179 10.5425 8.5458 10.3691C8.68761 10.2604 8.83044 10.1538 8.96916 10.0399C9.11918 9.91685 9.14487 9.76814 9.04726 9.63789C8.94758 9.50457 8.7842 9.49226 8.62287 9.6102C8.55299 9.66045 8.48723 9.71686 8.41838 9.76814C8.18204 9.94557 7.95186 10.1312 7.7073 10.2984C7.44219 10.4789 7.10823 10.4173 6.93457 10.1753C6.75885 9.93018 6.81742 9.61738 7.0774 9.41637C7.30655 9.23894 7.53776 9.06562 7.76485 8.88614C7.91282 8.76922 7.94159 8.61231 7.84808 8.48411C7.74738 8.34668 7.59016 8.33233 7.42575 8.45129C7.3456 8.50873 7.26955 8.57129 7.19146 8.63077C6.92121 8.83486 6.65816 9.04921 6.37866 9.23997C6.11766 9.41842 5.77548 9.34457 5.60901 9.09844C5.43946 8.84717 5.497 8.55385 5.75595 8.35489C6.02928 8.14464 6.30364 7.93645 6.57492 7.72211C6.68076 7.63903 6.74139 7.51596 6.66227 7.39905C6.60884 7.31905 6.50093 7.25239 6.40639 7.2329C6.34063 7.21854 6.2461 7.28316 6.18033 7.33238C5.80013 7.61544 5.42712 7.90876 5.04692 8.19182C4.75406 8.40924 4.42627 8.3713 4.22898 8.10772C4.04196 7.85851 4.10875 7.51083 4.39545 7.29854C5.08289 6.78883 5.77342 6.28219 6.46703 5.77965C6.52971 5.73453 6.6263 5.70889 6.70234 5.71607C7.90254 5.82786 8.92087 5.43711 9.78094 4.61254C9.90117 4.49768 9.97104 4.49255 10.0954 4.60331C10.5126 4.97355 10.9657 5.29045 11.5042 5.46275C12.058 5.6412 12.5862 5.60838 13.0681 5.2525C13.5881 4.86996 13.5634 4.32333 13.0414 3.94796C12.5122 3.56645 12.0077 3.15211 11.4908 2.75521C11.4487 2.7224 11.3942 2.70393 11.3459 2.67932C11.3613 2.64958 11.3768 2.61984 11.3922 2.59112C11.7703 2.55933 12.1474 2.52241 12.5256 2.49779C12.9859 2.46805 13.4504 2.47626 13.9066 2.41677C14.1748 2.38088 14.4286 2.24447 14.7071 2.14704ZM15.0349 1.46606C15.5497 1.26299 16.0512 1.06608 16.566 0.863015C17.2031 2.47625 17.8361 4.07616 18.4711 5.68427C17.9511 5.88837 17.4559 6.08323 16.94 6.28629C16.3029 4.67408 15.672 3.0793 15.0349 1.46606ZM14.2837 8.59487C14.2355 8.57539 14.1152 8.56 14.0525 8.49232C13.7741 8.18977 13.5018 7.88004 13.251 7.55493C13.1144 7.37648 13.1842 7.11906 13.361 6.97856C13.5305 6.84523 13.7874 6.83908 13.9354 6.99907C14.2026 7.28726 14.4564 7.58878 14.703 7.8944C14.8109 8.02875 14.8047 8.1949 14.7256 8.34771C14.6475 8.50257 14.5139 8.58154 14.2837 8.59487ZM13.6867 9.07485C13.659 9.27176 13.547 9.4379 13.3785 9.50559C13.1925 9.58046 13.0055 9.54149 12.8595 9.37637C12.6314 9.11895 12.4064 8.85742 12.1885 8.59077C12.0077 8.37027 12.0313 8.09952 12.2317 7.9344C12.43 7.77031 12.6992 7.79902 12.8883 8.01234C13.1082 8.26156 13.3261 8.5118 13.5336 8.77127C13.6014 8.85947 13.6364 8.97332 13.6867 9.07485ZM10.9082 11.4357C10.8619 11.4142 10.7458 11.3927 10.6821 11.3229C10.4119 11.0286 10.1478 10.7281 9.90219 10.4143C9.76347 10.2379 9.82101 9.97531 9.98953 9.83173C10.1591 9.68814 10.4263 9.67584 10.5783 9.83993C10.8496 10.1322 11.1075 10.4389 11.3552 10.7517C11.461 10.886 11.4466 11.0542 11.3613 11.205C11.275 11.3568 11.1384 11.4296 10.9082 11.4357ZM12.0693 10.5086C11.9728 10.4614 11.8525 10.4358 11.7847 10.362C11.5227 10.0768 11.2689 9.78455 11.0294 9.47995C10.8835 9.29535 10.9349 9.03177 11.1116 8.88409C11.2874 8.73743 11.5422 8.72718 11.6994 8.89537C11.9676 9.18253 12.2204 9.48508 12.466 9.79173C12.578 9.93223 12.5718 10.1025 12.4793 10.2604C12.391 10.4091 12.2574 10.484 12.0693 10.5086Z" fill="white"/>
</svg>
