<svg width="16" height="16" viewBox="0 0 16 16" fill="none" xmlns="http://www.w3.org/2000/svg">
<path d="M0.469482 5.81638C0.469482 5.62444 0.469482 5.43249 0.469482 5.24136C0.492397 5.09515 0.511221 4.94895 0.539864 4.80356C0.918774 2.88899 2.73639 1.60172 4.66613 1.88351C4.76679 1.89821 4.8249 1.87534 4.88873 1.8051C5.33229 1.31666 5.86588 0.957265 6.48703 0.73673C7.39706 0.413279 8.31201 0.414096 9.22123 0.741631C9.84156 0.965433 10.3743 1.32482 10.8163 1.81408C10.8785 1.88351 10.9382 1.88923 11.0282 1.88515C11.3621 1.87044 11.7017 1.83614 12.0307 1.87943C13.6593 2.09098 14.9188 3.32924 15.1766 4.94323C15.4196 6.46165 14.688 7.97273 13.3442 8.71601C13.2411 8.77319 13.21 8.8369 13.21 8.94961C13.2133 10.5407 13.2125 12.131 13.2125 13.7222C13.2125 13.8038 13.2125 13.8855 13.2051 13.9664C13.1683 14.3462 13.0054 14.6582 12.7116 14.9065C12.5029 15.0829 12.2558 15.1597 11.9988 15.221C9.23187 15.221 6.46493 15.221 3.69799 15.221C3.55723 15.1769 3.40828 15.1507 3.27816 15.087C2.73803 14.8216 2.48515 14.3764 2.48597 13.7801C2.48761 12.176 2.48679 10.5718 2.49252 8.96758C2.49333 8.84343 2.45978 8.77645 2.34684 8.71193C1.52928 8.24799 0.962149 7.57005 0.668351 6.6781C0.574237 6.39958 0.533316 6.1039 0.469482 5.81638ZM3.15377 11.8639C6.29143 11.8639 9.41437 11.8639 12.5447 11.8639C12.5447 11.7945 12.5447 11.7365 12.5447 11.6793C12.5447 10.6682 12.5471 9.65696 12.543 8.64495C12.5422 8.45382 12.6142 8.32313 12.7918 8.25044C12.8319 8.2341 12.8696 8.21368 12.908 8.19408C14.1348 7.57903 14.8067 6.148 14.4736 4.83378C14.1986 3.74826 13.5202 3.01886 12.4612 2.6513C12.1068 2.52796 11.7386 2.48222 11.3482 2.51735C11.3695 2.56635 11.385 2.59984 11.3981 2.63496C11.5274 2.98374 11.6862 3.32516 11.7746 3.68455C11.8458 3.97206 11.8458 4.28081 11.8507 4.58057C11.8531 4.72514 11.7132 4.82643 11.5683 4.83868C11.4251 4.85175 11.2803 4.7717 11.2336 4.6402C11.2091 4.56914 11.1984 4.49072 11.196 4.41476C11.1739 3.67148 10.9226 3.01396 10.4684 2.42668C9.63533 1.35178 8.07796 0.891922 6.79965 1.33054C5.46733 1.78713 4.53192 3.00987 4.49918 4.41476C4.49755 4.49889 4.48118 4.58874 4.44681 4.6647C4.38297 4.80682 4.22093 4.86972 4.07035 4.82969C3.90995 4.78722 3.81993 4.64183 3.82484 4.43763C3.84121 3.79972 3.99261 3.19774 4.29704 2.63415C4.31587 2.59903 4.32732 2.56064 4.35433 2.49448C4.12928 2.50918 3.93286 2.51326 3.73891 2.53695C2.25601 2.71991 1.07836 4.08641 1.14383 5.5738C1.19702 6.79409 1.78216 7.68766 2.87961 8.2341C3.07684 8.33212 3.16359 8.46035 3.16195 8.68252C3.15295 9.68391 3.15622 10.6861 3.15458 11.6875C3.15377 11.7447 3.15377 11.801 3.15377 11.8639ZM12.5414 12.5525C9.407 12.5525 6.28816 12.5525 3.16522 12.5525C3.16522 13.0279 3.15704 13.4959 3.16932 13.9631C3.17341 14.1355 3.27489 14.2776 3.40992 14.3903C3.56623 14.5218 3.75118 14.5545 3.94841 14.5545C6.55086 14.5545 9.15413 14.5545 11.7566 14.5537C11.8139 14.5537 11.872 14.5504 11.9284 14.5422C12.2722 14.4948 12.525 14.2474 12.5381 13.901C12.5537 13.4567 12.5414 13.0115 12.5414 12.5525Z" fill="white"/>
<path d="M4.15705 7.19434C4.30681 7.19352 4.45576 7.28991 4.47294 7.43611C4.55396 8.11732 4.9386 8.64905 5.32242 9.18242C5.35598 9.22898 5.39362 9.27309 5.4239 9.32128C5.5352 9.49607 5.50983 9.6872 5.36416 9.79665C5.20867 9.91346 5.01144 9.88895 4.88459 9.71252C4.66445 9.40541 4.44594 9.09666 4.25035 8.77402C4.03184 8.41218 3.86243 8.02666 3.8297 7.5962C3.81169 7.36423 3.95 7.19516 4.15705 7.19434Z" fill="white"/>
<path d="M11.8704 7.56516C11.8491 7.9368 11.7255 8.28067 11.5422 8.59514C11.3212 8.97495 11.0708 9.3376 10.8212 9.69944C10.6911 9.88812 10.4938 9.9159 10.3334 9.79746C10.1804 9.68393 10.155 9.47891 10.2884 9.30003C10.5839 8.90389 10.8711 8.50365 11.061 8.04462C11.124 7.89187 11.1518 7.72443 11.1952 7.56434C11.2124 7.49981 11.2189 7.4312 11.2467 7.37239C11.3139 7.23272 11.4734 7.16656 11.6232 7.20577C11.7779 7.24579 11.8744 7.38709 11.8704 7.56516Z" fill="white"/>
<path d="M8.18529 8.51919C8.18529 8.83529 8.18857 9.15139 8.18447 9.46749C8.18038 9.75174 7.99624 9.91101 7.7581 9.84567C7.63698 9.81218 7.55841 9.73458 7.53141 9.61206C7.51749 9.54754 7.51177 9.47974 7.51177 9.41277C7.51013 8.82386 7.51095 8.23413 7.51095 7.64522C7.51095 7.34954 7.63289 7.19026 7.85385 7.19353C8.06908 7.1968 8.18447 7.35281 8.18529 7.64195C8.18611 7.93518 8.18529 8.22759 8.18529 8.51919Z" fill="white"/>
</svg>
