<svg width="15" height="17" viewBox="0 0 15 17" fill="none" xmlns="http://www.w3.org/2000/svg">
<path d="M12.1514 0.544006C12.2664 0.582273 12.3857 0.612036 12.4964 0.659656C13.1687 0.949632 13.4788 1.72517 13.1968 2.39951C13.1755 2.45053 13.1516 2.50155 13.1193 2.57639C13.1849 2.57979 13.2368 2.58404 13.2888 2.58574C13.9772 2.6053 14.4723 3.073 14.5268 3.7567C14.531 3.80772 14.5328 3.85874 14.5328 3.90976C14.5328 6.48638 14.5336 9.06299 14.5328 11.6396C14.5328 12.2527 14.2235 12.723 13.6918 12.8922C13.5248 12.9449 13.3408 12.9645 13.1644 12.9653C11.6666 12.9713 10.1687 12.9687 8.67088 12.9687C8.6155 12.9687 8.56012 12.9687 8.48088 12.9687C8.54052 13.2213 8.59675 13.4568 8.65213 13.6924C8.70581 13.9203 8.76204 14.1482 8.81231 14.3769C8.83021 14.4603 8.86599 14.4951 8.95716 14.4917C9.15142 14.4849 9.34568 14.4892 9.53994 14.49C10.1738 14.4917 10.5479 14.8625 10.5555 15.4969C10.5555 15.5275 10.5555 15.5573 10.5555 15.6091C10.7847 15.6091 11.008 15.6091 11.2303 15.6091C11.3326 15.6091 11.4348 15.604 11.5371 15.6117C11.7058 15.6236 11.8233 15.7494 11.825 15.9119C11.8267 16.0743 11.7117 16.2018 11.5447 16.2197C11.4996 16.2248 11.4527 16.2222 11.4067 16.2222C8.75352 16.2222 6.10034 16.2222 3.44717 16.2222C3.40627 16.2222 3.36537 16.2239 3.32447 16.2214C3.14726 16.2086 3.02627 16.0819 3.02797 15.9136C3.02968 15.7452 3.15066 15.6168 3.32959 15.6125C3.60053 15.6066 3.87147 15.6108 4.14241 15.61C4.18757 15.61 4.23272 15.61 4.28385 15.61C4.29663 15.4756 4.29748 15.3481 4.32219 15.2256C4.40313 14.8276 4.72263 14.5343 5.12819 14.5019C5.38209 14.4815 5.6394 14.4968 5.89416 14.4866C5.94017 14.4849 6.016 14.4433 6.02537 14.4067C6.14465 13.9382 6.25456 13.467 6.37299 12.9696C6.29886 12.9696 6.24093 12.9696 6.18299 12.9696C4.66981 12.9696 3.15663 12.9713 1.64345 12.9687C0.988246 12.9679 0.49578 12.5997 0.356049 12.0061C0.329637 11.893 0.321117 11.774 0.321117 11.6575C0.319413 9.07065 0.318561 6.48383 0.320265 3.89701C0.320265 3.23882 0.700264 2.74306 1.30349 2.61465C1.42703 2.58829 1.55739 2.58829 1.68434 2.58829C4.35797 2.58659 7.0316 2.58659 9.70523 2.58999C9.82536 2.58999 9.89949 2.55768 9.96594 2.45393C10.1832 2.11464 10.4252 1.79065 10.6331 1.44625C10.8989 1.00661 11.2252 0.657105 11.7509 0.546557C11.8855 0.544006 12.0185 0.544006 12.1514 0.544006ZM13.9193 9.67951C13.9193 9.60383 13.9193 9.54855 13.9193 9.49328C13.9193 7.64118 13.9193 5.78823 13.9193 3.93612C13.9193 3.88 13.9193 3.82388 13.9133 3.76775C13.8767 3.43526 13.6364 3.20991 13.3007 3.19971C13.1269 3.1946 12.9523 3.20651 12.7793 3.19545C12.6583 3.1878 12.5842 3.23457 12.5092 3.32471C11.6598 4.36471 10.8086 5.40301 9.94976 6.43621C9.84411 6.56291 9.80321 6.67516 9.85518 6.83248C9.885 6.92262 9.88756 7.02296 9.89437 7.11905C9.94635 7.92775 9.39083 8.6106 8.59079 8.69138C8.30281 8.72029 8.00971 8.69478 7.71918 8.69053C7.32895 8.68458 6.97281 8.76536 6.67205 9.03918C6.48631 9.20841 6.23241 9.12592 6.16765 8.88442C6.0177 8.32487 5.92568 7.76023 5.97851 7.17603C6.07734 6.09011 6.82285 5.36984 7.91599 5.32307C8.00801 5.31882 8.06254 5.29076 8.11281 5.21338C8.5303 4.58411 8.95204 3.95823 9.37209 3.33066C9.39595 3.2941 9.41554 3.25498 9.44877 3.19715C9.37635 3.19715 9.32693 3.19715 9.27666 3.19715C6.73595 3.19715 4.19438 3.19715 1.65367 3.19715C1.16973 3.19715 0.933717 3.43526 0.933717 3.92507C0.932865 5.78227 0.933717 7.64033 0.933717 9.49753C0.933717 9.55195 0.933717 9.60723 0.933717 9.67866C1.01295 9.67866 1.07345 9.67866 1.13394 9.67866C1.36399 9.67951 1.59403 9.67271 1.82407 9.68546C2.00555 9.69482 2.12313 9.83087 2.11802 9.99585C2.11291 10.1625 1.99107 10.2799 1.80789 10.2901C1.74143 10.2935 1.67497 10.2918 1.60851 10.2918C1.3904 10.2918 1.17228 10.2918 0.945645 10.2918C0.941385 10.3547 0.935421 10.3998 0.935421 10.444C0.934569 10.8471 0.933717 11.2501 0.935421 11.6532C0.937125 12.1031 1.18847 12.3556 1.64004 12.3556C5.50053 12.3565 9.36016 12.3565 13.2206 12.3556C13.6637 12.3556 13.9159 12.1022 13.9193 11.6626C13.9219 11.2748 13.9202 10.887 13.9202 10.4993C13.9202 10.2926 13.9202 10.2918 13.7157 10.2918C10.6169 10.2918 7.51895 10.2918 4.42017 10.2918C4.35371 10.2918 4.2864 10.2935 4.2208 10.285C4.07595 10.2663 3.97116 10.1489 3.96264 10.0061C3.95412 9.86404 4.04528 9.73053 4.18672 9.69907C4.2651 9.68121 4.3486 9.68036 4.43039 9.68036C7.51895 9.67951 10.6067 9.67951 13.6952 9.67951C13.76 9.67951 13.8256 9.67951 13.9193 9.67951ZM10.4635 4.85197C10.5683 4.72527 10.662 4.61132 10.7549 4.49737C11.3317 3.79581 11.9077 3.09341 12.4862 2.39356C12.6651 2.17756 12.7367 1.93861 12.6515 1.66819C12.5603 1.37822 12.3516 1.20644 12.0542 1.16563C11.7552 1.12481 11.5132 1.24386 11.3445 1.49472C10.7583 2.36634 10.1738 3.23882 9.5885 4.11215C9.57572 4.13171 9.5672 4.15467 9.55527 4.18018C9.85774 4.40298 10.1525 4.62152 10.4635 4.85197ZM6.66182 8.29851C7.10146 8.08252 7.55133 8.06296 8.00971 8.09102C8.14689 8.09953 8.28577 8.10548 8.42294 8.09783C8.85577 8.07402 9.17272 7.84357 9.24855 7.4575C9.28518 7.26957 9.25366 7.06463 9.23321 6.86989C9.22639 6.80527 9.16846 6.73213 9.11308 6.68962C8.8055 6.45321 8.49281 6.22446 8.17927 5.99572C8.14007 5.9668 8.09151 5.93959 8.04465 5.93449C7.43801 5.87496 6.8416 6.27208 6.66608 6.85629C6.52465 7.32824 6.56725 7.80275 6.66182 8.29851ZM4.91945 15.5998C6.59792 15.5998 8.26532 15.5998 9.93186 15.5998C9.96594 15.2197 9.86115 15.1023 9.49648 15.1023C8.11707 15.1023 6.73765 15.1023 5.35909 15.1023C4.99187 15.1023 4.89304 15.212 4.91945 15.5998ZM6.64649 14.479C7.17303 14.479 7.68084 14.479 8.20823 14.479C8.0864 13.9679 7.96797 13.4705 7.84953 12.9772C7.55729 12.9772 7.28294 12.9772 7.00348 12.9772C6.8842 13.4781 6.76662 13.9713 6.64649 14.479ZM9.40617 6.13858C9.6311 5.86476 9.84922 5.59944 10.0742 5.32648C9.7785 5.10793 9.49733 4.89959 9.20595 4.68445C9.00572 4.98293 8.81657 5.26525 8.62061 5.55693C8.88303 5.75081 9.13949 5.94129 9.40617 6.13858Z" fill="white"/>
<path d="M3.03465 10.2893C2.86595 10.2867 2.73389 10.1532 2.73389 9.98567C2.73474 9.82155 2.87191 9.68464 3.0372 9.68294C3.20846 9.68124 3.34989 9.8258 3.34478 9.99672C3.34052 10.1642 3.20505 10.2918 3.03465 10.2893Z" fill="white"/>
</svg>
