<svg width="26" height="25" viewBox="0 0 26 25" fill="none" xmlns="http://www.w3.org/2000/svg">
<path d="M12.5628 24.9345C5.62454 24.9345 0 19.3527 0 12.4672C0 5.58176 5.62454 0 12.5628 0C19.501 0 25.1256 5.58176 25.1256 12.4672C25.1256 19.3527 19.501 24.9345 12.5628 24.9345Z" fill="white"/>
<path d="M10.6483 20.0012H13.7049V12.4017H15.8372L16.0616 9.85973H13.6982C13.6982 9.85973 13.6982 8.90978 13.6982 8.41188C13.6982 7.80915 13.8171 7.5733 14.4046 7.5733C14.8733 7.5733 16.0616 7.5733 16.0616 7.5733V4.93311C16.0616 4.93311 14.3188 4.93311 13.9425 4.93311C11.665 4.93311 10.6417 5.92891 10.6417 7.82881C10.6417 9.4863 10.6417 9.85973 10.6417 9.85973H9.05074V12.4344H10.6417V20.0012H10.6483Z" fill="#F52D5E"/>
</svg>
