<svg width="19" height="14" viewBox="0 0 19 14" fill="none" xmlns="http://www.w3.org/2000/svg">
<path d="M0.544189 7.70872C0.717679 7.43426 0.966757 7.32577 1.28854 7.35739C1.43611 7.37176 1.58657 7.35954 1.74494 7.35954C1.76078 7.28913 1.77157 7.22231 1.79101 7.15765C1.86228 6.92414 2.08184 6.75242 2.32948 6.7438C2.51305 6.73734 2.69733 6.74093 2.88162 6.74165C3.28115 6.7438 3.52519 6.98162 3.53311 7.38181C3.53815 7.63975 3.53383 7.8984 3.53455 8.15634C3.53455 8.21813 3.53455 8.27992 3.53455 8.35176C3.81818 8.35176 4.08669 8.35176 4.38616 8.35176C4.34584 8.28782 4.31273 8.23321 4.27817 8.18005C3.69508 7.28338 3.243 6.33283 3.04359 5.27164C2.60015 2.91214 4.03054 0.70066 6.36725 0.227899C7.96393 -0.0954174 9.32665 0.393868 10.4288 1.59373C10.4705 1.63971 10.5101 1.68785 10.5634 1.75036C10.6116 1.69935 10.6505 1.66127 10.6865 1.6196C12.2335 -0.190975 14.9712 -0.37347 16.7478 1.21581C16.7651 1.2309 16.7824 1.24599 16.7989 1.26179C16.9364 1.39471 16.9552 1.53841 16.85 1.65552C16.7435 1.77335 16.5974 1.77407 16.4548 1.64546C16.0841 1.31065 15.6695 1.05128 15.1994 0.878124C13.7431 0.343575 12.1061 0.766041 11.0932 1.94076C11.0709 1.96662 11.0486 1.99321 11.0256 2.01907C10.7441 2.33736 10.3849 2.34095 10.1113 2.01548C9.6254 1.43782 9.0279 1.03188 8.30371 0.810587C6.07066 0.126593 3.73251 1.67851 3.50575 3.99489C3.40569 5.01155 3.6706 5.95419 4.11981 6.84726C4.36384 7.33224 4.67483 7.78273 4.95198 8.25118C5.00669 8.34314 5.07651 8.3647 5.17802 8.3647C5.8619 8.36038 6.5465 8.36254 7.23038 8.36254C7.44706 8.36254 7.56584 8.45594 7.5644 8.62119C7.56296 8.78501 7.44346 8.87697 7.22606 8.87697C6.0649 8.87769 4.90375 8.87697 3.74259 8.87697C3.68068 8.87697 3.61877 8.87697 3.54678 8.87697C3.54678 9.23981 3.54678 9.58611 3.54678 9.9432C5.45949 9.9432 7.36571 9.9432 9.28274 9.9432C9.28274 9.59186 9.28274 9.24555 9.28274 8.87697C9.02142 8.87697 8.76515 8.88057 8.50815 8.87625C8.30515 8.87266 8.18493 8.72897 8.23316 8.55366C8.27059 8.41786 8.3685 8.36254 8.50455 8.36254C8.76155 8.36254 9.01854 8.36254 9.29497 8.36254C9.29497 8.04856 9.29426 7.75111 9.29497 7.45438C9.29569 6.96007 9.51454 6.74237 10.0098 6.74165C10.125 6.74165 10.2395 6.74165 10.3546 6.74165C10.7945 6.74237 10.9881 6.90402 11.0774 7.35954C11.2775 7.35954 11.482 7.3581 11.6871 7.36026C12.0665 7.36385 12.3112 7.60598 12.3127 7.98677C12.3148 8.95098 12.3156 9.91446 12.3127 10.8787C12.312 11.2559 12.0651 11.4958 11.6828 11.5016C11.482 11.5045 11.2811 11.5023 11.0831 11.5023C10.968 11.9902 10.801 12.1202 10.2992 12.1202C10.1667 12.1202 10.035 12.1224 9.90255 12.1188C9.55125 12.1101 9.30938 11.8752 9.29858 11.5224C9.28994 11.2415 9.29642 10.9598 9.2957 10.6789C9.2957 10.6171 9.2957 10.5553 9.2957 10.4828C8.49592 10.4828 7.71773 10.4828 6.91651 10.4828C6.94963 10.5245 6.97194 10.5597 7.00146 10.5884C8.0388 11.5856 9.15892 12.4809 10.3424 13.2992C10.4928 13.4034 10.6375 13.412 10.7887 13.3071C12.7381 11.9456 14.5436 10.426 15.9905 8.52132C16.6967 7.59161 17.269 6.59005 17.5339 5.43832C17.7585 4.45975 17.6901 3.51423 17.2093 2.61613C17.1092 2.42932 17.1438 2.27701 17.2913 2.20372C17.4353 2.13259 17.5656 2.19079 17.6642 2.374C18.2725 3.50633 18.2992 4.68679 17.9507 5.89456C17.6182 7.047 17.0084 8.05431 16.2792 8.9948C15.1497 10.4526 13.7985 11.6855 12.3429 12.8085C11.9434 13.1167 11.5316 13.4113 11.1191 13.7023C10.7354 13.9732 10.4057 13.9681 10.0213 13.7023C8.67229 12.7683 7.40459 11.7365 6.24703 10.5726C6.19664 10.5216 6.11241 10.4763 6.04331 10.4763C5.24425 10.4698 4.44519 10.472 3.64613 10.4727C3.61805 10.4727 3.5907 10.4777 3.53743 10.4828C3.53743 10.6689 3.53886 10.8506 3.53671 11.0317C3.53455 11.2264 3.54391 11.4233 3.52015 11.6158C3.48344 11.9082 3.24876 12.1073 2.95361 12.1188C2.81035 12.1245 2.66638 12.1209 2.52241 12.1209C2.03001 12.1209 1.8666 11.9937 1.74638 11.503C1.59809 11.503 1.44403 11.4915 1.29214 11.5052C0.970356 11.5346 0.720562 11.4283 0.547792 11.1524C0.544193 10.0043 0.544189 8.85614 0.544189 7.70872ZM3.01696 9.43236C3.01696 8.77279 3.01336 8.11251 3.01984 7.45294C3.02128 7.3035 2.97304 7.24315 2.82115 7.2568C2.70741 7.26686 2.59079 7.26614 2.47633 7.2568C2.32948 7.24458 2.26829 7.29344 2.27333 7.44863C2.28269 7.71806 2.27909 7.98821 2.27405 8.25764C2.27117 8.42074 2.16823 8.52851 2.02641 8.53282C1.88532 8.53641 1.77518 8.43151 1.76078 8.27129C1.7543 8.19729 1.75358 8.12185 1.75934 8.04785C1.7687 7.92642 1.72838 7.86535 1.59521 7.87326C1.45771 7.88116 1.3195 7.87828 1.18128 7.87397C1.07474 7.87038 1.02435 7.90631 1.02435 8.02198C1.02723 8.96319 1.02651 9.90368 1.02435 10.8449C1.02435 10.9491 1.06682 10.9893 1.16832 10.9864C1.30654 10.9828 1.44475 10.9785 1.58225 10.9879C1.72047 10.9972 1.76222 10.9412 1.76006 10.8083C1.75358 10.4066 1.75718 10.005 1.75862 9.60336C1.75862 9.5466 1.75646 9.48696 1.76942 9.43236C1.80253 9.2901 1.89755 9.2125 2.04441 9.22759C2.18046 9.24124 2.26109 9.3253 2.27261 9.46541C2.27693 9.51642 2.27549 9.56887 2.27549 9.61988C2.27549 10.2169 2.27981 10.8133 2.27261 11.4103C2.27117 11.5612 2.32156 11.6201 2.47201 11.6058C2.5692 11.5964 2.6671 11.6043 2.765 11.6043C3.01552 11.6043 3.01552 11.6043 3.01552 11.3615C3.01768 10.7177 3.01696 10.0754 3.01696 9.43236ZM10.5454 9.44745C10.5454 9.34973 10.5454 9.25274 10.5454 9.15502C10.5454 8.58743 10.5411 8.01911 10.5483 7.45151C10.5504 7.29991 10.5 7.24315 10.3496 7.2568C10.2416 7.26686 10.13 7.26829 10.022 7.2568C9.85504 7.23884 9.80465 7.30422 9.80609 7.46947C9.81329 8.25549 9.80897 9.0415 9.80897 9.82752C9.80897 10.3614 9.81185 10.8945 9.80681 11.4283C9.80537 11.5619 9.85072 11.6165 9.98678 11.6065C10.107 11.5979 10.2287 11.5964 10.3489 11.6065C10.4993 11.6187 10.549 11.5619 10.5476 11.4103C10.5418 10.7558 10.5454 10.102 10.5454 9.44745ZM11.063 9.41224C11.063 9.88213 11.0651 10.352 11.0615 10.8219C11.0608 10.9354 11.0918 10.9936 11.217 10.9872C11.3603 10.98 11.5043 10.9828 11.6475 10.9864C11.7454 10.9886 11.7958 10.9577 11.7958 10.8499C11.7937 9.9044 11.7937 8.95888 11.7958 8.01408C11.7958 7.90774 11.7497 7.87182 11.6497 7.87469C11.5122 7.87828 11.374 7.8826 11.2365 7.87326C11.0975 7.86463 11.0594 7.92355 11.0615 8.05503C11.0666 8.50696 11.063 8.9596 11.063 9.41224Z" fill="white"/>
<path d="M9.17478 4.19321C9.11647 4.37642 9.07328 4.51006 9.03225 4.64441C8.80045 5.406 8.56865 6.16759 8.33613 6.92846C8.31813 6.9881 8.30517 7.06785 8.26198 7.09731C8.18783 7.1476 8.07697 7.20939 8.0093 7.1864C7.92364 7.15694 7.83005 7.05923 7.80126 6.97085C7.62633 6.43774 7.4694 5.89888 7.30599 5.36217C7.22896 5.10999 7.1433 4.86067 7.07707 4.60633C7.04539 4.48347 6.99212 4.44539 6.86542 4.44683C6.18154 4.4533 5.49766 4.4497 4.81378 4.4497C4.75043 4.4497 4.68637 4.45186 4.62446 4.44036C4.49344 4.41665 4.40562 4.32181 4.42505 4.20183C4.43945 4.11202 4.5244 4.02364 4.59854 3.95754C4.6367 3.92378 4.71948 3.93455 4.78211 3.93455C5.55813 3.93312 6.33344 3.93312 7.10946 3.93383C7.36718 3.93383 7.42333 3.97622 7.50035 4.22769C7.68104 4.819 7.86029 5.41031 8.0561 6.05407C8.09209 5.94702 8.11441 5.88667 8.13312 5.82488C8.38868 4.98713 8.63991 4.14722 8.90339 3.31235C8.93434 3.21535 9.01569 3.10902 9.10351 3.06088C9.23957 2.98688 9.3785 3.08387 9.43537 3.26421C9.54191 3.60261 9.65062 3.94102 9.74276 4.28373C9.77732 4.41234 9.8313 4.45473 9.9652 4.4533C10.6203 4.44611 11.2754 4.4497 11.9305 4.45042C11.9931 4.45042 12.0579 4.4497 12.1191 4.46192C12.2558 4.48994 12.3293 4.58262 12.3235 4.71985C12.3177 4.85565 12.2407 4.94258 12.0996 4.96054C12.0543 4.96629 12.0082 4.96557 11.9621 4.96557C11.2149 4.96557 10.4677 4.96629 9.72117 4.96557C9.44113 4.96557 9.40514 4.93755 9.32092 4.66453C9.27628 4.52514 9.23381 4.38576 9.17478 4.19321Z" fill="white"/>
</svg>
