<svg width="15" height="15" viewBox="0 0 15 15" fill="none" xmlns="http://www.w3.org/2000/svg">
<path d="M14.328 5.26039C14.328 8.1659 14.328 11.0714 14.328 13.9762C14.2243 14.1874 14.0769 14.3287 13.8213 14.328C11.8727 14.3257 9.92336 14.328 7.97475 14.3227C7.89581 14.3227 7.79958 14.2776 7.74095 14.2227C7.52744 14.0235 7.26883 14.0235 7.05457 14.2257C6.99894 14.2784 6.90722 14.3227 6.83205 14.3227C4.87442 14.328 2.91604 14.3272 0.958409 14.3257C0.671982 14.3257 0.472761 14.125 0.469754 13.8401C0.466747 13.5108 0.46825 13.1816 0.469754 12.8523C0.470506 12.6952 0.53666 12.6193 0.667469 12.617C0.804293 12.6147 0.874209 12.6937 0.874961 12.8568C0.876464 13.1545 0.882478 13.4522 0.871953 13.7499C0.867442 13.8912 0.918564 13.9235 1.05163 13.9228C2.91904 13.919 4.78721 13.9213 6.65463 13.9168C6.72755 13.9168 6.81175 13.886 6.87039 13.8424C7.17786 13.6138 7.6169 13.6048 7.91536 13.8416C7.99279 13.9032 8.06722 13.9213 8.16044 13.9213C10.0143 13.9198 11.869 13.9198 13.7228 13.9198C13.9228 13.9198 13.9228 13.9198 13.9228 13.7191C13.9228 10.9759 13.9228 8.23355 13.9228 5.49042C13.9228 5.45434 13.9318 5.4145 13.9191 5.38292C13.9063 5.35135 13.8747 5.30549 13.8484 5.30399C13.7161 5.29572 13.583 5.30023 13.4424 5.30023C13.4424 5.38142 13.4424 5.4393 13.4424 5.49794C13.4424 8.05539 13.4424 10.6136 13.4424 13.171C13.4424 13.4342 13.3913 13.4845 13.1252 13.4845C9.3084 13.4845 5.49238 13.4845 1.6756 13.4845C1.40271 13.4845 1.3546 13.4364 1.3546 13.1613C1.3546 10.6038 1.3546 8.04562 1.3546 5.48817C1.3546 5.43103 1.3546 5.37315 1.3546 5.29722C1.24709 5.29722 1.15387 5.29722 1.06065 5.29722C0.874961 5.29797 0.874961 5.29797 0.874961 5.48591C0.874961 7.47955 0.874961 9.47394 0.874961 11.4676C0.874961 11.5172 0.878721 11.5683 0.868947 11.6157C0.847146 11.7187 0.771968 11.7668 0.671982 11.7668C0.571996 11.7668 0.497568 11.7187 0.475014 11.6157C0.465241 11.5721 0.469001 11.5262 0.469001 11.4811C0.469001 10.7685 0.469001 10.0558 0.469001 9.34313C0.469001 8.03058 0.468249 6.71803 0.469001 5.40472C0.469001 5.09049 0.658449 4.89804 0.971188 4.89128C1.04787 4.88977 1.12455 4.88827 1.20123 4.89203C1.28693 4.89579 1.34933 4.89353 1.3764 4.78077C1.39068 4.72138 1.47262 4.66274 1.53728 4.63418C1.69665 4.56201 1.8628 4.50112 2.02894 4.44699C2.25071 4.37483 2.47625 4.31318 2.70779 4.24477C2.70779 4.18839 2.70779 4.13427 2.70779 4.08089C2.70779 3.22841 2.70704 2.37592 2.70855 1.52344C2.70855 1.30318 2.80477 1.22424 3.01452 1.27687C3.24156 1.334 3.46634 1.39865 3.69112 1.46405C3.8099 1.49863 3.92567 1.54374 4.06175 1.59035C4.06175 1.29115 4.06475 1.013 4.06024 0.734857C4.05874 0.615329 4.09332 0.522865 4.20383 0.467987C4.24894 0.467987 4.29405 0.467987 4.33915 0.467987C4.39854 0.486029 4.45793 0.505575 4.51883 0.522113C5.12551 0.682987 5.6713 0.957374 6.13891 1.38061C6.84407 2.01884 7.23725 2.83149 7.44926 3.74185C7.50865 3.99519 7.54473 4.25379 7.59285 4.51766C7.61841 4.50112 7.64096 4.48834 7.66126 4.47255C9.03776 3.40732 10.609 2.91418 12.3366 2.88035C12.5711 2.87584 12.629 2.93598 12.6298 3.17503C12.6305 3.53587 12.6343 3.89671 12.6275 4.25755C12.6252 4.36505 12.6531 4.41768 12.7606 4.44925C12.9327 4.50037 13.1026 4.56351 13.2658 4.63869C13.3327 4.66951 13.4041 4.73642 13.4266 4.80332C13.4545 4.88601 13.4943 4.89579 13.562 4.89278C13.6161 4.89053 13.6702 4.89654 13.7243 4.89203C14.016 4.86873 14.2228 4.97998 14.328 5.26039ZM12.2245 11.097C12.2245 11.0255 12.2245 10.9677 12.2245 10.9098C12.2245 9.52055 12.2245 8.13132 12.2245 6.74208C12.2245 6.69247 12.2223 6.6421 12.2291 6.59324C12.2463 6.47672 12.3351 6.40154 12.4441 6.41357C12.5591 6.4256 12.6215 6.49325 12.6282 6.60978C12.6305 6.65037 12.6298 6.69097 12.6298 6.73156C12.6298 8.21551 12.6298 9.69946 12.6298 11.1834C12.6298 11.4586 12.5854 11.5037 12.3065 11.5067C11.4096 11.5157 10.5421 11.6796 9.70384 11.9998C9.67001 12.0126 9.63693 12.0254 9.60385 12.0404C9.57228 12.0547 9.54145 12.0712 9.51063 12.087C10.1015 11.9983 10.6894 11.9743 11.2811 12.0209C11.8735 12.0675 12.4501 12.196 13.035 12.3659C13.035 12.2922 13.035 12.2434 13.035 12.1938C13.035 9.83929 13.035 7.48481 13.035 5.12958C13.035 5.09801 13.0417 5.06418 13.0327 5.03561C13.0229 5.00629 13.0026 4.96946 12.9771 4.95818C12.8711 4.91308 12.7613 4.87624 12.6298 4.82813C12.6298 4.89429 12.6298 4.93788 12.6298 4.98149C12.629 5.11229 12.632 5.24309 12.6267 5.3739C12.6215 5.48967 12.5553 5.55808 12.4388 5.56409C12.3223 5.57011 12.2524 5.50696 12.2306 5.3942C12.2223 5.3506 12.2238 5.30474 12.2238 5.25963C12.223 4.65523 12.2238 4.05082 12.223 3.44642C12.223 3.39455 12.2185 3.34343 12.214 3.25171C11.7021 3.32839 11.2074 3.375 10.7247 3.47949C9.60084 3.72231 8.59045 4.2117 7.71087 4.95969C7.63269 5.02584 7.59886 5.09575 7.59886 5.20175C7.60187 7.65546 7.60111 10.1092 7.60187 12.5636C7.60187 12.6095 7.60713 12.6561 7.61089 12.7253C8.97687 11.6645 10.5127 11.1601 12.2245 11.097ZM4.46695 0.930312C4.46695 1.05585 4.46695 1.16335 4.46695 1.27085C4.46695 3.70652 4.46695 6.14219 4.4662 8.57786C4.4662 8.6598 4.45793 8.72595 4.57145 8.75752C5.77881 9.0913 6.61854 9.85132 7.129 10.988C7.14178 11.0165 7.15982 11.0421 7.18989 11.094C7.1929 11.0391 7.19515 11.0165 7.19515 10.9947C7.19515 8.99207 7.20042 6.98941 7.1929 4.98675C7.18989 4.13502 6.99518 3.32388 6.5787 2.57589C6.11259 1.73919 5.41419 1.19418 4.46695 0.930312ZM6.7689 12.5764C6.7704 12.5531 6.77416 12.5433 6.77115 12.5373C6.75461 12.5103 6.73732 12.4839 6.71928 12.4584C5.77655 11.1586 4.55115 10.2723 2.97543 9.89868C2.72659 9.84004 2.70704 9.81523 2.70704 9.56114C2.70704 7.99149 2.70704 6.42184 2.70704 4.85219C2.70704 4.80032 2.70704 4.74769 2.70704 4.66124C2.4161 4.75596 2.15374 4.84692 1.88836 4.92511C1.7801 4.95668 1.75755 5.01381 1.75755 5.11981C1.76055 7.48331 1.7598 9.84681 1.7598 12.2103C1.7598 12.2577 1.76356 12.3043 1.76657 12.3652C3.46859 11.8532 5.13528 11.8299 6.7689 12.5764ZM7.08239 12.2569C7.09291 12.2524 7.10344 12.2486 7.11396 12.2441C7.02826 11.9607 6.95834 11.6721 6.8546 11.3954C6.4088 10.2016 5.58861 9.4153 4.33389 9.1116C4.07678 9.0492 4.06024 9.03041 4.06024 8.76504C4.06024 6.58196 4.06024 4.39963 4.06024 2.21655C4.06024 2.17596 4.0655 2.13461 4.05799 2.09552C4.05272 2.06846 4.03543 2.03012 4.01438 2.0226C3.72194 1.9136 3.428 1.80911 3.12052 1.6986C3.11676 1.76099 3.113 1.78731 3.113 1.81437C3.113 4.34476 3.113 6.87439 3.1115 9.40478C3.1115 9.48597 3.13405 9.52055 3.2175 9.54235C4.66467 9.91672 5.83744 10.7128 6.77717 11.8653C6.88242 11.993 6.9809 12.1261 7.08239 12.2569ZM1.77334 13.0726C3.45281 13.0726 5.1225 13.0726 6.7922 13.0726C6.79671 13.059 6.80047 13.0462 6.80498 13.0327C6.50577 12.9139 6.21258 12.7764 5.90736 12.6794C4.59476 12.2637 3.28441 12.3389 1.98082 12.7298C1.73499 12.8034 1.73575 12.8049 1.77334 13.0726ZM7.96798 13.0726C9.67978 13.0726 11.3517 13.0726 13.0259 13.0726C13.0297 13.047 13.0342 13.0297 13.035 13.0124C13.0365 12.9718 13.032 12.9305 13.0365 12.8906C13.0447 12.8185 13.0117 12.7884 12.9455 12.7681C11.6622 12.3637 10.3677 12.2629 9.05656 12.626C8.68819 12.7283 8.33485 12.8681 7.96798 13.0726Z" fill="white"/>
</svg>
