<svg width="26" height="25" viewBox="0 0 26 25" fill="none" xmlns="http://www.w3.org/2000/svg">
<path d="M12.5628 24.9345C5.62454 24.9345 0 19.3527 0 12.4672C0 5.58176 5.62454 0 12.5628 0C19.501 0 25.1256 5.58176 25.1256 12.4672C25.1256 19.3527 19.501 24.9345 12.5628 24.9345Z" fill="white"/>
<path d="M12.5628 6.86593C14.4046 6.86593 14.6225 6.87249 15.3486 6.90524C16.022 6.938 16.3851 7.04937 16.6293 7.14109C16.9528 7.26557 17.1773 7.41625 17.4215 7.6521C17.6658 7.8945 17.811 8.11724 17.9365 8.43826C18.0289 8.68066 18.1411 9.04099 18.1741 9.70923C18.2071 10.4299 18.2137 10.6461 18.2137 12.4739C18.2137 14.3017 18.2071 14.5179 18.1741 15.2386C18.1411 15.9068 18.0289 16.2671 17.9365 16.5095C17.811 16.8306 17.6592 17.0533 17.4215 17.2957C17.1839 17.5316 16.9528 17.6822 16.6293 17.8067C16.3851 17.8984 16.022 18.0098 15.3486 18.0426C14.6225 18.0753 14.4046 18.0819 12.5628 18.0819C10.7209 18.0819 10.5031 18.0753 9.77692 18.0426C9.10356 18.0098 8.74048 17.8984 8.49622 17.8067C8.17274 17.6822 7.94828 17.5316 7.70403 17.2957C7.45977 17.0533 7.31453 16.8306 7.1891 16.5095C7.09668 16.2671 6.98446 15.9068 6.95145 15.2386C6.91844 14.5179 6.91184 14.3017 6.91184 12.4739C6.91184 10.6461 6.91844 10.4299 6.95145 9.70923C6.98446 9.04099 7.09668 8.68066 7.1891 8.43826C7.31453 8.11724 7.46637 7.8945 7.70403 7.6521C7.94828 7.4097 8.17274 7.26557 8.49622 7.14109C8.74048 7.04937 9.10356 6.938 9.77692 6.90524C10.5031 6.87249 10.7275 6.86593 12.5628 6.86593ZM12.5628 5.63428C10.6945 5.63428 10.4569 5.64083 9.7241 5.67359C8.99133 5.70634 8.48961 5.82427 8.05391 5.9946C7.5984 6.17149 7.21551 6.40079 6.83262 6.78077C6.44973 7.16074 6.21207 7.54072 6.04043 7.99277C5.86879 8.42516 5.75656 8.92306 5.71695 9.65026C5.68395 10.3775 5.67735 10.6133 5.67735 12.4673C5.67735 14.3214 5.68395 14.5572 5.71695 15.2844C5.74996 16.0116 5.86879 16.5095 6.04043 16.9419C6.21868 17.394 6.44973 17.774 6.83262 18.1539C7.21551 18.5339 7.5984 18.7698 8.05391 18.9401C8.48961 19.1104 8.99133 19.2218 9.7241 19.2546C10.4569 19.2873 10.6945 19.2939 12.5628 19.2939C14.431 19.2939 14.6687 19.2873 15.4015 19.2546C16.1342 19.2218 16.6359 19.1039 17.0717 18.9401C17.5272 18.7632 17.9101 18.5339 18.2929 18.1539C18.6758 17.774 18.9135 17.394 19.0851 16.9419C19.2568 16.5095 19.369 16.0116 19.4086 15.2844C19.4416 14.5572 19.4482 14.3214 19.4482 12.4673C19.4482 10.6133 19.4416 10.3775 19.4086 9.65026C19.3756 8.92306 19.2568 8.42516 19.0851 7.99277C18.9069 7.54072 18.6758 7.16074 18.2929 6.78077C17.9101 6.40079 17.5272 6.16494 17.0717 5.9946C16.6359 5.82427 16.1342 5.71289 15.4015 5.67359C14.6687 5.64083 14.431 5.63428 12.5628 5.63428Z" fill="#F52D5E"/>
<path d="M12.5628 8.95581C10.6087 8.95581 9.02434 10.5281 9.02434 12.4673C9.02434 14.4065 10.6087 15.9789 12.5628 15.9789C14.5168 15.9789 16.1012 14.4065 16.1012 12.4673C16.1012 10.5281 14.5168 8.95581 12.5628 8.95581ZM12.5628 14.7472C11.2953 14.7472 10.2654 13.7252 10.2654 12.4673C10.2654 11.2095 11.2953 10.1875 12.5628 10.1875C13.8303 10.1875 14.8601 11.2095 14.8601 12.4673C14.8601 13.7252 13.8303 14.7472 12.5628 14.7472Z" fill="#F52D5E"/>
<path d="M17.0651 8.81819C17.0651 9.27023 16.6954 9.63711 16.2399 9.63711C15.7844 9.63711 15.4147 9.27023 15.4147 8.81819C15.4147 8.36614 15.7844 7.99927 16.2399 7.99927C16.6954 7.99927 17.0651 8.36614 17.0651 8.81819Z" fill="#F52D5E"/>
</svg>
