<svg width="26" height="25" viewBox="0 0 26 25" fill="none" xmlns="http://www.w3.org/2000/svg">
<path d="M12.5628 24.9345C5.62454 24.9345 0 19.3527 0 12.4672C0 5.58176 5.62454 0 12.5628 0C19.501 0 25.1256 5.58176 25.1256 12.4672C25.1256 19.3527 19.501 24.9345 12.5628 24.9345Z" fill="white"/>
<path d="M9.46665 9.6897H6.86563V18.023H9.46665V9.6897Z" fill="#F52D5E"/>
<path d="M8.15293 8.5955C9.00454 8.5955 9.6911 7.90761 9.6911 7.05593C9.6911 6.20425 9.00454 5.51636 8.15293 5.51636C7.30133 5.51636 6.61477 6.20425 6.61477 7.05593C6.61477 7.90761 7.30133 8.5955 8.15293 8.5955Z" fill="#F52D5E"/>
<path d="M13.6256 13.6466C13.6256 12.4739 14.167 11.7794 15.21 11.7794C16.1672 11.7794 16.6227 12.4477 16.6227 13.6466C16.6227 14.8455 16.6227 18.0229 16.6227 18.0229H19.2106C19.2106 18.0229 19.2106 14.9765 19.2106 12.7425C19.2106 10.5085 17.9365 9.42749 16.154 9.42749C14.3716 9.42749 13.6256 10.8033 13.6256 10.8033V9.68299H11.1302V18.0163H13.6256C13.6256 18.0229 13.6256 14.9306 13.6256 13.6466Z" fill="#F52D5E"/>
</svg>
