<svg width="18" height="18" viewBox="0 0 18 18" fill="none" xmlns="http://www.w3.org/2000/svg">
<path fill-rule="evenodd" clip-rule="evenodd" d="M0.666656 9.00483C0.666656 4.40521 4.407 0.666672 8.99999 0.666672C13.593 0.666672 17.3333 4.40521 17.3333 9.00483C17.3333 13.5948 13.593 17.3333 8.99999 17.3333C4.407 17.3333 0.666656 13.5948 0.666656 9.00483ZM12.0566 9.84821C12.1451 9.75977 12.2577 9.6231 12.2818 9.59094C12.4105 9.4221 12.4749 9.21306 12.4749 9.00483C12.4749 8.77087 12.4025 8.55379 12.2658 8.37691C12.2545 8.36571 12.2326 8.34183 12.204 8.3107C12.1505 8.25247 12.0737 8.16887 12.0003 8.09552C11.3407 7.38801 9.61936 6.23027 8.71846 5.87651C8.58171 5.82104 8.23583 5.69964 8.05083 5.6916C7.87386 5.6916 7.70494 5.73179 7.54407 5.81219C7.34298 5.92475 7.1821 6.10163 7.09362 6.31067C7.03731 6.45538 6.94883 6.88954 6.94883 6.89758C6.86035 7.37193 6.81209 8.14376 6.81209 8.99599C6.81209 9.80882 6.86035 10.5477 6.93274 11.0301C6.93473 11.0321 6.94165 11.0666 6.9524 11.1202C6.98508 11.2831 7.05316 11.6226 7.12579 11.7617C7.30276 12.0994 7.64864 12.3084 8.01865 12.3084H8.05083C8.29214 12.3004 8.7989 12.0913 8.7989 12.0833C9.65153 11.7295 11.3327 10.6281 12.0084 9.89645L12.0566 9.84821Z" fill="#FAF7F7"/>
</svg>
