<svg width="16" height="15" viewBox="0 0 16 15" fill="none" xmlns="http://www.w3.org/2000/svg">
<path d="M0.468018 2.87656C0.647867 2.41556 0.920092 2.20261 1.33538 2.1969C1.81116 2.19037 2.19375 2.5298 2.24117 3.00384C2.25098 3.10094 2.25261 3.19803 2.25752 3.30165C2.33355 3.30165 2.40549 3.29675 2.47661 3.30246C2.96792 3.33918 3.31944 3.71042 3.3219 4.20487C3.32598 4.87555 3.32517 5.54705 3.32108 6.21773C3.32026 6.31809 3.34642 6.38989 3.42 6.46087C4.0413 7.06628 4.6536 7.68148 5.27899 8.28281C5.98122 8.95921 6.32457 9.77839 6.31803 10.7518C6.31149 11.8247 6.31639 12.8968 6.31639 13.9697C6.31639 14.2986 6.22483 14.3908 5.89947 14.3908C5.28144 14.3908 4.66341 14.3908 4.04457 14.3908C3.75763 14.3908 3.65462 14.2879 3.65462 14.0016C3.6538 13.3015 3.65217 12.6006 3.65707 11.9006C3.65789 11.7961 3.62437 11.7309 3.54426 11.6672C2.85102 11.114 2.15942 10.5576 1.46945 10.0003C0.923363 9.55891 0.603719 8.98695 0.49581 8.29424C0.490905 8.26078 0.477828 8.22896 0.468836 8.19633C0.468018 6.42253 0.468018 4.64954 0.468018 2.87656ZM5.71962 13.796C5.72289 13.7397 5.72697 13.6915 5.72697 13.6442C5.72697 12.6553 5.72779 11.6664 5.72697 10.6767C5.72615 9.92443 5.4572 9.28476 4.91765 8.75686C4.4198 8.27057 3.92603 7.78103 3.42981 7.29229C3.23034 7.09647 3.03251 6.89984 2.82977 6.70728C2.72104 6.60447 2.59106 6.57755 2.44881 6.63221C2.30657 6.6877 2.2101 6.80029 2.224 6.94389C2.23544 7.05894 2.29594 7.1903 2.37605 7.27516C3.03332 7.97521 3.70122 8.66548 4.36502 9.35982C4.50563 9.50669 4.51381 9.68129 4.39282 9.80286C4.26366 9.93259 4.08953 9.92036 3.94074 9.76533C3.26222 9.05875 2.5837 8.35135 1.90681 7.64232C1.67955 7.40407 1.58962 7.12013 1.6444 6.79295C1.65748 6.71625 1.66156 6.63711 1.66156 6.5596C1.66238 5.45322 1.66238 4.34684 1.66238 3.23964C1.66238 3.18579 1.6632 3.13194 1.65747 3.07809C1.63622 2.89124 1.51114 2.77783 1.3362 2.78517C1.14409 2.79333 1.06152 2.88717 1.06152 3.10257C1.05989 4.68871 1.05907 6.27566 1.05662 7.8618C1.0558 8.5692 1.33129 9.13952 1.88474 9.58175C2.60822 10.1594 3.3268 10.7444 4.0511 11.3213C4.18517 11.4282 4.24731 11.5465 4.24485 11.7211C4.23668 12.3575 4.24158 12.9939 4.24158 13.6303C4.24158 13.6825 4.24158 13.7348 4.24158 13.7951C4.74025 13.796 5.21931 13.796 5.71962 13.796ZM2.71858 6.00967C2.72022 6.00641 2.73085 5.99335 2.73167 5.98112C2.73248 5.37979 2.73902 4.77846 2.72594 4.17713C2.72431 4.09309 2.64583 3.98375 2.57144 3.93317C2.39731 3.81568 2.25098 3.90543 2.25098 4.11267C2.25098 4.7091 2.25098 5.30554 2.25098 5.90279C2.25098 5.95419 2.25098 6.00559 2.25098 6.05292C2.4202 6.0366 2.56571 6.02354 2.71858 6.00967Z" fill="white"/>
<path d="M8.03628 0.762543C8.49735 0.259123 9.48325 0.436176 9.88546 1.0269C9.95168 1.12399 10.0187 1.16724 10.1381 1.18437C10.9245 1.29778 11.3766 1.85342 11.3431 2.6571C11.339 2.76072 11.361 2.82273 11.4493 2.88474C12.0363 3.29596 12.1785 3.89647 12.1475 4.56552C12.1205 5.14645 11.9014 5.62621 11.4076 5.964C11.3709 5.9893 11.3521 6.05702 11.3455 6.1076C11.3226 6.29118 11.33 6.48129 11.2858 6.65916C11.1477 7.21317 10.7103 7.57054 10.1111 7.6301C10.0097 7.63989 9.9574 7.67906 9.90426 7.7582C9.59116 8.22246 8.96169 8.45418 8.44176 8.28365C8.28398 8.23225 8.14337 8.12699 7.98887 8.04295C7.42561 8.60838 6.41191 8.30241 6.0702 7.71332C6.04813 7.67579 5.99009 7.64316 5.94513 7.63826C5.117 7.54198 4.63222 6.98471 4.66738 6.15248C4.67146 6.04804 4.65021 5.98685 4.5611 5.92402C3.96351 5.50464 3.82781 4.8927 3.86541 4.21386C3.89648 3.64272 4.12047 3.1752 4.60361 2.84557C4.6404 2.82028 4.65838 2.75256 4.66492 2.70197C4.68781 2.51839 4.67964 2.32747 4.72378 2.15041C4.86358 1.59151 5.29848 1.24067 5.91242 1.17703C6.00071 1.16805 6.04895 1.1346 6.09636 1.06361C6.39638 0.613228 6.97026 0.374981 7.49673 0.505528C7.67985 0.552851 7.84498 0.669529 8.03628 0.762543ZM9.38434 7.47426C9.35 7.43754 9.31893 7.40654 9.2895 7.3739C9.08104 7.13647 9.01074 6.86151 9.07041 6.55472C9.10393 6.3842 9.24045 6.28302 9.3966 6.30179C9.56255 6.32219 9.66392 6.45437 9.65329 6.6355C9.65002 6.69832 9.63857 6.76441 9.65084 6.82479C9.67863 6.95289 9.74567 7.05162 9.89363 7.05733C10.4013 7.07773 10.7144 6.80195 10.7496 6.29853C10.7561 6.21122 10.7536 6.12147 10.7406 6.03499C10.7062 5.80245 10.7912 5.63927 10.9956 5.52341C11.2 5.40755 11.3627 5.24844 11.4575 5.02651C11.7404 4.36073 11.5327 3.65251 10.9351 3.2519C10.7929 3.15644 10.7209 3.02671 10.7357 2.85373C10.7414 2.7852 10.7504 2.71748 10.7536 2.64894C10.779 2.16755 10.5623 1.86974 10.1291 1.77428C10.0277 1.75225 9.97457 1.77673 9.91244 1.86158C9.64184 2.22711 9.27397 2.365 8.82762 2.28341C8.64287 2.24996 8.53577 2.09819 8.56602 1.93583C8.59627 1.77428 8.73442 1.68289 8.91836 1.70248C8.94289 1.70492 8.9666 1.71063 8.99112 1.7139C9.14808 1.7343 9.27888 1.68208 9.39251 1.57519C9.46118 1.50992 9.47099 1.45036 9.4105 1.37285C9.22411 1.13623 8.97885 1.04403 8.68537 1.07014C8.53495 1.08401 8.42296 1.16642 8.3829 1.31165C8.34284 1.45607 8.30278 1.60701 8.30197 1.75551C8.29624 3.52278 8.29624 5.29087 8.30197 7.05814C8.30278 7.20664 8.34284 7.35758 8.3829 7.502C8.42296 7.64805 8.53577 7.72964 8.68456 7.74433C8.96087 7.77044 9.19631 7.68885 9.38434 7.47426ZM6.63101 1.33042C6.63509 1.34021 6.63591 1.34592 6.63836 1.34918C6.66452 1.37856 6.69068 1.4063 6.71684 1.43567C6.92122 1.66739 6.99397 1.93746 6.94165 2.24016C6.91059 2.41803 6.77243 2.53226 6.61629 2.51431C6.44707 2.49555 6.34406 2.35603 6.35632 2.16755C6.36041 2.10472 6.37022 2.03782 6.35551 1.97907C6.32526 1.85913 6.26068 1.76367 6.11925 1.75633C5.61567 1.7294 5.29603 2.00763 5.25843 2.50942C5.25189 2.59182 5.25271 2.67668 5.26579 2.75827C5.30421 3.0006 5.22246 3.17439 5.00419 3.29514C4.81289 3.40121 4.6592 3.55216 4.56355 3.75532C4.26026 4.40316 4.47281 5.16522 5.06795 5.55931C5.21673 5.65722 5.28786 5.79103 5.27151 5.96971C5.26497 6.03825 5.25679 6.10597 5.25352 6.17451C5.23227 6.64366 5.44318 6.9382 5.85847 7.0353C5.96802 7.06141 6.03178 7.04346 6.10126 6.94473C6.3506 6.59062 6.81003 6.42826 7.20489 6.53759C7.37411 6.58491 7.46975 6.71954 7.44359 6.87375C7.41662 7.0304 7.285 7.12586 7.10924 7.11281C7.07 7.10955 7.03158 7.10057 6.99234 7.09812C6.8411 7.0867 6.71602 7.14055 6.60893 7.24744C6.54517 7.31108 6.54108 7.36819 6.59667 7.43836C6.78551 7.67987 7.03485 7.77452 7.33405 7.7427C7.47793 7.72719 7.58666 7.64642 7.62426 7.5069C7.66514 7.35269 7.70683 7.19195 7.70765 7.03367C7.71337 5.28108 7.71255 3.52849 7.70847 1.77509C7.70847 1.63067 7.67822 1.483 7.64061 1.34266C7.59238 1.16152 7.45831 1.06769 7.2711 1.06361C7.01768 1.0579 6.79859 1.13623 6.63101 1.33042Z" fill="white"/>
<path d="M13.7514 3.30655C13.758 3.19232 13.7571 3.08952 13.7702 2.98834C13.8201 2.61302 14.0253 2.3503 14.385 2.23852C14.7529 2.12347 15.0839 2.21975 15.3496 2.50287C15.4788 2.64076 15.536 2.81211 15.536 2.99977C15.5377 4.66913 15.5524 6.33931 15.5344 8.00867C15.5254 8.80908 15.1788 9.47487 14.5575 9.98482C13.8642 10.5535 13.1628 11.1124 12.4614 11.6713C12.3797 11.7366 12.3527 11.8043 12.3527 11.9071C12.3568 12.6023 12.3551 13.2974 12.3551 13.9926C12.3551 14.2896 12.2538 14.3908 11.9595 14.3916C11.3316 14.3916 10.7038 14.3924 10.076 14.3916C9.79883 14.3916 9.69337 14.2871 9.69337 14.0105C9.69255 12.8944 9.6901 11.7782 9.69419 10.6612C9.69746 9.75554 10.0245 8.98206 10.6719 8.34564C11.3145 7.71331 11.9587 7.08179 12.5979 6.44619C12.6462 6.39805 12.6821 6.31402 12.683 6.24629C12.6895 5.60988 12.7091 4.97265 12.6805 4.33705C12.6535 3.75367 13.05 3.23638 13.7514 3.30655ZM11.7674 13.796C11.7674 13.7242 11.7674 13.6711 11.7674 13.6173C11.7674 12.9858 11.7723 12.3542 11.7641 11.7227C11.7616 11.5481 11.823 11.4298 11.957 11.3221C12.6969 10.733 13.4342 10.1407 14.1683 9.54422C14.6817 9.12729 14.9491 8.58144 14.9507 7.92137C14.9548 6.30586 14.9499 4.68953 14.9482 3.07402C14.9482 2.89778 14.8706 2.80721 14.7038 2.78681C14.5444 2.76723 14.4038 2.8529 14.3662 3.00466C14.349 3.07483 14.3482 3.14989 14.3482 3.22333C14.3474 4.32971 14.3474 5.43609 14.3482 6.54329C14.3482 6.63059 14.3539 6.71952 14.3678 6.80601C14.4177 7.12911 14.3269 7.40734 14.1046 7.64151C13.7702 7.99317 13.4326 8.34156 13.0942 8.68914C12.9495 8.83764 12.7811 8.84988 12.6527 8.72831C12.5252 8.60755 12.535 8.42642 12.6789 8.27466C12.7974 8.15064 12.9168 8.02744 13.0353 7.90423C13.256 7.67496 13.48 7.44814 13.6958 7.21397C13.8119 7.08832 13.8242 6.93248 13.7465 6.79296C13.6738 6.66078 13.5225 6.57511 13.3762 6.61509C13.283 6.6412 13.189 6.70076 13.1179 6.7693C12.4369 7.43264 11.7608 8.10087 11.0823 8.76665C10.5477 9.29129 10.2836 9.92852 10.2828 10.6751C10.282 11.664 10.282 12.6529 10.2828 13.6426C10.2828 13.694 10.2885 13.7454 10.2918 13.796C10.7896 13.796 11.2687 13.796 11.7674 13.796ZM13.7416 6.04966C13.7457 6.04232 13.7539 6.03416 13.7539 6.02518C13.7555 5.35532 13.758 4.68545 13.7539 4.01558C13.7539 3.97805 13.7048 3.92012 13.6656 3.90625C13.4637 3.83282 13.2765 3.98784 13.2748 4.22772C13.2724 4.75562 13.274 5.28433 13.274 5.81223C13.274 5.87913 13.274 5.94604 13.274 6.00723C13.4432 6.02273 13.592 6.0366 13.7416 6.04966Z" fill="white"/>
<path d="M10.5371 4.75071C10.5347 4.90329 10.4488 5.10564 10.2804 5.27127C10.1545 5.39529 9.99429 5.401 9.87167 5.29248C9.74986 5.18478 9.7376 5.02405 9.84142 4.88453C10.0311 4.62996 9.96078 4.44883 9.64767 4.38926C9.46537 4.35418 9.36727 4.23098 9.38607 4.06045C9.40324 3.90543 9.53077 3.80588 9.70899 3.80833C10.1652 3.81649 10.5371 4.2016 10.5371 4.75071Z" fill="white"/>
<path d="M5.47365 4.74745C5.47119 4.2065 5.83825 3.81976 6.29441 3.80833C6.4808 3.80344 6.61078 3.90624 6.62468 4.06779C6.6394 4.23832 6.54048 4.35581 6.35409 4.39008C6.05325 4.44556 5.97968 4.63404 6.16525 4.87881C6.27071 5.01834 6.26253 5.17907 6.14399 5.28841C6.02055 5.40263 5.85378 5.39529 5.7238 5.26556C5.56112 5.10237 5.47692 4.90492 5.47365 4.74745Z" fill="white"/>
<path d="M11.9293 9.19009C12.0936 9.19009 12.2187 9.3133 12.2195 9.47648C12.2204 9.64374 12.0855 9.77837 11.922 9.77347C11.765 9.76858 11.6334 9.63232 11.635 9.47648C11.6367 9.31901 11.7691 9.19009 11.9293 9.19009Z" fill="white"/>
</svg>
