<svg width="152" height="31" viewBox="0 0 152 31" fill="none" xmlns="http://www.w3.org/2000/svg">
<path d="M8.91542 24.8C6.22827 24.8 4.08766 24.0652 2.49358 22.5956C0.899512 21.1259 0.0683173 18.9444 0 16.0511C0 15.8904 0 15.6837 0 15.4311C0 15.1785 0 14.9833 0 14.8456C0.0683173 13.0315 0.466835 11.4815 1.19555 10.1956C1.94705 8.88667 2.97181 7.89926 4.26984 7.23333C5.59064 6.54444 7.12778 6.2 8.88126 6.2C10.8852 6.2 12.5362 6.60185 13.8343 7.40555C15.1551 8.20926 16.1457 9.3 16.8061 10.6778C17.4665 12.0556 17.7967 13.6285 17.7967 15.3967V16.2233C17.7967 16.4759 17.7056 16.6826 17.5234 16.8433C17.364 17.0041 17.1704 17.0844 16.9427 17.0844H6.01193C6.01193 17.1074 6.01193 17.1418 6.01193 17.1878C6.01193 17.2337 6.01193 17.2796 6.01193 17.3256C6.0347 17.9915 6.14856 18.6 6.35352 19.1511C6.55847 19.7022 6.87728 20.1385 7.30996 20.46C7.74264 20.7815 8.2664 20.9422 8.88126 20.9422C9.33671 20.9422 9.71245 20.8733 10.0085 20.7356C10.3273 20.5748 10.5892 20.4026 10.7941 20.2189C10.9991 20.0122 11.1585 19.84 11.2724 19.7022C11.4773 19.4726 11.6367 19.3348 11.7506 19.2889C11.8872 19.22 12.0922 19.1856 12.3654 19.1856H16.6011C16.8288 19.1856 17.011 19.2544 17.1477 19.3922C17.3071 19.507 17.3754 19.6793 17.3526 19.9089C17.3298 20.2993 17.1363 20.77 16.7719 21.3211C16.4076 21.8722 15.8724 22.4233 15.1665 22.9744C14.4833 23.5026 13.6179 23.9389 12.5704 24.2833C11.5229 24.6278 10.3045 24.8 8.91542 24.8ZM6.01193 13.6744H11.7847V13.6056C11.7847 12.8707 11.6709 12.2278 11.4432 11.6767C11.2382 11.1256 10.908 10.7007 10.4526 10.4022C10.0199 10.1037 9.49611 9.95444 8.88126 9.95444C8.2664 9.95444 7.74264 10.1037 7.30996 10.4022C6.90005 10.7007 6.58124 11.1256 6.35352 11.6767C6.12579 12.2278 6.01193 12.8707 6.01193 13.6056V13.6744Z" fill="white"/>
<path d="M22.2288 24.4556C21.9783 24.4556 21.7733 24.3752 21.6139 24.2144C21.4545 24.0537 21.3748 23.847 21.3748 23.5944V1.20556C21.3748 0.952963 21.4545 0.746296 21.6139 0.585556C21.7733 0.424815 21.9783 0.344444 22.2288 0.344444H38.1809C38.4314 0.344444 38.6363 0.424815 38.7957 0.585556C38.9551 0.746296 39.0348 0.952963 39.0348 1.20556V4.44333C39.0348 4.69592 38.9551 4.90259 38.7957 5.06333C38.6363 5.22407 38.4314 5.30444 38.1809 5.30444H27.2843V9.95444H37.4294C37.6799 9.95444 37.8848 10.0463 38.0442 10.23C38.2036 10.3907 38.2833 10.5974 38.2833 10.85V13.8467C38.2833 14.0763 38.2036 14.283 38.0442 14.4667C37.8848 14.6274 37.6799 14.7078 37.4294 14.7078H27.2843V19.4956H38.4541C38.7046 19.4956 38.9096 19.5759 39.069 19.7367C39.2284 19.8974 39.3081 20.1041 39.3081 20.3567V23.5944C39.3081 23.847 39.2284 24.0537 39.069 24.2144C38.9096 24.3752 38.7046 24.4556 38.4541 24.4556H22.2288Z" fill="white"/>
<path d="M42.0979 24.4556C41.893 24.4556 41.7108 24.3867 41.5514 24.2489C41.4147 24.0881 41.3464 23.9044 41.3464 23.6978C41.3464 23.6289 41.3578 23.5485 41.3806 23.4567C41.4033 23.3419 41.4489 23.2385 41.5172 23.1467L47.2217 15.2589L42.0296 7.85333C41.9613 7.76148 41.9043 7.66963 41.8588 7.57778C41.836 7.48593 41.8246 7.39407 41.8246 7.30222C41.8246 7.09555 41.9043 6.92333 42.0637 6.78556C42.2232 6.62481 42.4053 6.54444 42.6103 6.54444H46.7776C47.0737 6.54444 47.29 6.61333 47.4267 6.75111C47.5861 6.88889 47.6999 7.01518 47.7682 7.13L50.945 11.5733L54.0876 7.16444C54.1787 7.04963 54.2926 6.92333 54.4292 6.78556C54.5886 6.62481 54.8163 6.54444 55.1124 6.54444H59.1089C59.3139 6.54444 59.4847 6.62481 59.6213 6.78556C59.7807 6.92333 59.8604 7.09555 59.8604 7.30222C59.8604 7.39407 59.849 7.48593 59.8263 7.57778C59.8035 7.66963 59.7579 7.76148 59.6896 7.85333L54.3609 15.2589L60.1337 23.1467C60.2248 23.2385 60.2817 23.3304 60.3045 23.4222C60.3273 23.5141 60.3386 23.6059 60.3386 23.6978C60.3386 23.9044 60.2589 24.0881 60.0995 24.2489C59.9629 24.3867 59.7807 24.4556 59.553 24.4556H55.2148C54.9416 24.4556 54.7366 24.3981 54.6 24.2833C54.4634 24.1456 54.3495 24.0193 54.2584 23.9044L50.8084 19.1856L47.3242 23.9044C47.2331 23.9963 47.1192 24.1111 46.9826 24.2489C46.846 24.3867 46.6296 24.4556 46.3336 24.4556H42.0979Z" fill="white"/>
<path d="M63.7508 31C63.5003 31 63.2953 30.9196 63.1359 30.7589C62.9765 30.5981 62.8968 30.3915 62.8968 30.1389V7.40555C62.8968 7.15296 62.9765 6.9463 63.1359 6.78556C63.2953 6.62481 63.5003 6.54444 63.7508 6.54444H67.6107C67.8384 6.54444 68.032 6.62481 68.1914 6.78556C68.3736 6.9463 68.4647 7.15296 68.4647 7.40555V8.68C68.9884 7.96815 69.683 7.38259 70.5484 6.92333C71.4137 6.44111 72.484 6.2 73.7593 6.2C74.8979 6.2 75.8999 6.3837 76.7652 6.75111C77.6306 7.09556 78.3707 7.61222 78.9855 8.30111C79.6004 8.99 80.0786 9.82815 80.4202 10.8156C80.7846 11.803 80.9895 12.9396 81.0351 14.2256C81.0578 14.6848 81.0692 15.1096 81.0692 15.5C81.0692 15.8904 81.0578 16.3152 81.0351 16.7744C80.9895 18.0144 80.796 19.1281 80.4544 20.1156C80.1128 21.103 79.6346 21.9411 79.0197 22.63C78.4049 23.3189 77.6534 23.8585 76.7652 24.2489C75.8999 24.6163 74.8979 24.8 73.7593 24.8C72.6434 24.8 71.6642 24.6048 70.8216 24.2144C70.0018 23.8011 69.3186 23.227 68.7721 22.4922V30.1389C68.7721 30.3915 68.6924 30.5981 68.533 30.7589C68.3736 30.9196 68.1686 31 67.9181 31H63.7508ZM71.9147 20.1844C72.689 20.1844 73.2924 20.0237 73.7251 19.7022C74.1578 19.3807 74.4652 18.9444 74.6474 18.3933C74.8523 17.8422 74.9776 17.2337 75.0231 16.5678C75.0687 15.8559 75.0687 15.1441 75.0231 14.4322C74.9776 13.7663 74.8523 13.1578 74.6474 12.6067C74.4652 12.0556 74.1578 11.6193 73.7251 11.2978C73.2924 10.9763 72.689 10.8156 71.9147 10.8156C71.1632 10.8156 70.5597 10.9878 70.1043 11.3322C69.6488 11.6537 69.3186 12.0785 69.1137 12.6067C68.9087 13.1348 68.7949 13.7089 68.7721 14.3289C68.7493 14.7652 68.7379 15.19 68.7379 15.6033C68.7379 16.0167 68.7493 16.453 68.7721 16.9122C68.7949 17.4863 68.9201 18.0259 69.1479 18.5311C69.3756 19.0133 69.7172 19.4152 70.1726 19.7367C70.6281 20.0352 71.2088 20.1844 71.9147 20.1844Z" fill="white"/>
<path d="M92.6442 24.8C89.9571 24.8 87.8165 24.0652 86.2224 22.5956C84.6283 21.1259 83.7971 18.9444 83.7288 16.0511C83.7288 15.8904 83.7288 15.6837 83.7288 15.4311C83.7288 15.1785 83.7288 14.9833 83.7288 14.8456C83.7971 13.0315 84.1956 11.4815 84.9244 10.1956C85.6758 8.88667 86.7006 7.89926 87.9986 7.23333C89.3194 6.54444 90.8566 6.2 92.6101 6.2C94.614 6.2 96.265 6.60185 97.5631 7.40555C98.8839 8.20926 99.8745 9.3 100.535 10.6778C101.195 12.0556 101.525 13.6285 101.525 15.3967V16.2233C101.525 16.4759 101.434 16.6826 101.252 16.8433C101.093 17.0041 100.899 17.0844 100.672 17.0844H89.7407C89.7407 17.1074 89.7407 17.1418 89.7407 17.1878C89.7407 17.2337 89.7407 17.2796 89.7407 17.3256C89.7635 17.9915 89.8774 18.6 90.0823 19.1511C90.2873 19.7022 90.6061 20.1385 91.0388 20.46C91.4714 20.7815 91.9952 20.9422 92.6101 20.9422C93.0655 20.9422 93.4413 20.8733 93.7373 20.7356C94.0561 20.5748 94.318 20.4026 94.5229 20.2189C94.7279 20.0122 94.8873 19.84 95.0012 19.7022C95.2061 19.4726 95.3655 19.3348 95.4794 19.2889C95.616 19.22 95.821 19.1856 96.0942 19.1856H100.33C100.558 19.1856 100.74 19.2544 100.876 19.3922C101.036 19.507 101.104 19.6793 101.081 19.9089C101.059 20.2993 100.865 20.77 100.501 21.3211C100.136 21.8722 99.6012 22.4233 98.8953 22.9744C98.2121 23.5026 97.3467 23.9389 96.2992 24.2833C95.2517 24.6278 94.0333 24.8 92.6442 24.8ZM89.7407 13.6744H95.5135V13.6056C95.5135 12.8707 95.3997 12.2278 95.172 11.6767C94.967 11.1256 94.6368 10.7007 94.1814 10.4022C93.7487 10.1037 93.2249 9.95444 92.6101 9.95444C91.9952 9.95444 91.4714 10.1037 91.0388 10.4022C90.6289 10.7007 90.31 11.1256 90.0823 11.6767C89.8546 12.2278 89.7407 12.8707 89.7407 13.6056V13.6744Z" fill="white"/>
<path d="M105.582 24.4556C105.331 24.4556 105.126 24.3752 104.967 24.2144C104.808 24.0537 104.728 23.847 104.728 23.5944V7.40555C104.728 7.17593 104.808 6.98074 104.967 6.82C105.126 6.6363 105.331 6.54444 105.582 6.54444H109.51C109.761 6.54444 109.966 6.6363 110.125 6.82C110.284 6.98074 110.364 7.17593 110.364 7.40555V8.78333C110.979 8.07148 111.708 7.52037 112.55 7.13C113.416 6.73963 114.383 6.54444 115.454 6.54444H116.957C117.184 6.54444 117.378 6.62481 117.537 6.78556C117.72 6.9463 117.811 7.15296 117.811 7.40555V10.9533C117.811 11.183 117.72 11.3896 117.537 11.5733C117.378 11.7341 117.184 11.8144 116.957 11.8144H113.643C112.71 11.8144 111.981 12.0785 111.457 12.6067C110.956 13.1119 110.706 13.8352 110.706 14.7767V23.5944C110.706 23.847 110.615 24.0537 110.432 24.2144C110.273 24.3752 110.068 24.4556 109.817 24.4556H105.582Z" fill="white"/>
<path d="M129.326 24.4556C127.868 24.4556 126.604 24.2259 125.534 23.7667C124.486 23.2844 123.678 22.5496 123.109 21.5622C122.539 20.5518 122.255 19.2544 122.255 17.67V11.0567H119.59C119.34 11.0567 119.124 10.9763 118.941 10.8156C118.782 10.6548 118.702 10.4481 118.702 10.1956V7.40555C118.702 7.15296 118.782 6.9463 118.941 6.78556C119.124 6.62481 119.34 6.54444 119.59 6.54444H122.255V0.86111C122.255 0.608518 122.334 0.401852 122.494 0.241112C122.676 0.0803707 122.881 0 123.109 0H127.071C127.322 0 127.527 0.0803707 127.686 0.241112C127.845 0.401852 127.925 0.608518 127.925 0.86111V6.54444H132.195C132.445 6.54444 132.65 6.62481 132.81 6.78556C132.969 6.9463 133.049 7.15296 133.049 7.40555V10.1956C133.049 10.4481 132.969 10.6548 132.81 10.8156C132.65 10.9763 132.445 11.0567 132.195 11.0567H127.925V17.1878C127.925 17.9685 128.073 18.5885 128.369 19.0478C128.665 19.507 129.166 19.7367 129.872 19.7367H132.502C132.753 19.7367 132.958 19.817 133.117 19.9778C133.277 20.1385 133.356 20.3452 133.356 20.5978V23.5944C133.356 23.847 133.277 24.0537 133.117 24.2144C132.958 24.3752 132.753 24.4556 132.502 24.4556H129.326Z" fill="white"/>
<path d="M143.494 24.8C142.014 24.8 140.75 24.6393 139.703 24.3178C138.678 23.9733 137.836 23.56 137.175 23.0778C136.537 22.5956 136.059 22.1018 135.74 21.5967C135.422 21.0685 135.251 20.6207 135.228 20.2533C135.205 20.0007 135.285 19.7941 135.467 19.6333C135.649 19.4496 135.843 19.3578 136.048 19.3578H139.942C140.01 19.3578 140.067 19.3693 140.113 19.3922C140.158 19.4152 140.227 19.4611 140.318 19.53C140.614 19.6907 140.91 19.8974 141.206 20.15C141.502 20.3796 141.843 20.5863 142.231 20.77C142.618 20.9537 143.085 21.0456 143.631 21.0456C144.269 21.0456 144.804 20.9193 145.237 20.6667C145.669 20.4141 145.886 20.0352 145.886 19.53C145.886 19.1626 145.783 18.8641 145.578 18.6344C145.373 18.3818 144.952 18.1407 144.314 17.9111C143.699 17.6815 142.766 17.4518 141.513 17.2222C140.329 16.9467 139.293 16.5907 138.405 16.1544C137.517 15.6952 136.834 15.1096 136.355 14.3978C135.877 13.663 135.638 12.7789 135.638 11.7456C135.638 10.827 135.934 9.94296 136.526 9.09333C137.118 8.2437 137.984 7.55481 139.122 7.02667C140.261 6.47555 141.661 6.2 143.324 6.2C144.645 6.2 145.783 6.36074 146.74 6.68222C147.719 6.98074 148.539 7.37111 149.199 7.85333C149.882 8.33556 150.395 8.82926 150.736 9.33444C151.078 9.83963 151.26 10.2989 151.283 10.7122C151.305 10.9418 151.237 11.1485 151.078 11.3322C150.918 11.493 150.736 11.5733 150.531 11.5733H146.979C146.888 11.5733 146.796 11.5619 146.705 11.5389C146.614 11.493 146.535 11.447 146.466 11.4011C146.193 11.2633 145.92 11.0796 145.646 10.85C145.373 10.6204 145.054 10.4137 144.69 10.23C144.326 10.0463 143.87 9.95444 143.324 9.95444C142.709 9.95444 142.231 10.0922 141.889 10.3678C141.547 10.6433 141.377 10.9993 141.377 11.4356C141.377 11.7341 141.468 12.0096 141.65 12.2622C141.855 12.5148 142.253 12.7444 142.845 12.9511C143.46 13.1578 144.405 13.3874 145.681 13.64C147.252 13.8926 148.504 14.3059 149.438 14.88C150.372 15.4311 151.032 16.0856 151.419 16.8433C151.806 17.5781 152 18.3589 152 19.1856C152 20.2878 151.67 21.2637 151.009 22.1133C150.372 22.963 149.415 23.6289 148.14 24.1111C146.865 24.5704 145.316 24.8 143.494 24.8Z" fill="white"/>
</svg>
